<?xml version="1.0" encoding="utf-8"?>
<!-- Generator: Adobe Illustrator 16.0.0, SVG Export Plug-In . SVG Version: 6.00 Build 0)  -->
<!DOCTYPE svg PUBLIC "-//W3C//DTD SVG 1.1//EN" "http://www.w3.org/Graphics/SVG/1.1/DTD/svg11.dtd">
<svg version="1.1" id="圖層_1" xmlns="http://www.w3.org/2000/svg" xmlns:xlink="http://www.w3.org/1999/xlink" x="0px" y="0px"
	 width="176.783px" height="151.172px" viewBox="0 0 176.783 151.172" enable-background="new 0 0 176.783 151.172"
	 xml:space="preserve">
<g>
	<path d="M96.217,88.184c-3.061,9.05-7.309,19.157-12.744,30.322c-5.437,11.167-10.466,19.401-15.088,24.707
		c-4.624,5.306-10.319,7.959-17.09,7.959c-14.063,0-26.14-8.675-36.23-26.025C4.972,107.797-0.072,87.858-0.072,65.332
		c0-7.356,0.716-18.262,2.148-32.715C3.443,18.1,4.127,7.227,4.127,0H34.01c-0.195,6.577-1.172,17.351-2.93,32.324
		c-1.694,13.867-2.539,24.675-2.539,32.422c0,14.975,2.522,28.125,7.568,39.453c5.044,11.328,9.326,16.992,12.842,16.992
		c5.078,0,13.086-14.876,24.023-44.629L96.217,88.184z M176.783,124.316l-29.395,1.855c0-20.117-3.516-40.43-10.547-60.938
		s-16.602-38.052-28.711-52.637l23.633-11.816C161.776,34.18,176.783,75.358,176.783,124.316z"/>
</g>
</svg>
