<?xml version="1.0" encoding="utf-8"?>
<!-- Generator: Adobe Illustrator 16.0.0, SVG Export Plug-In . SVG Version: 6.00 Build 0)  -->
<!DOCTYPE svg PUBLIC "-//W3C//DTD SVG 1.1//EN" "http://www.w3.org/Graphics/SVG/1.1/DTD/svg11.dtd">
<svg version="1.1" id="圖層_1" xmlns="http://www.w3.org/2000/svg" xmlns:xlink="http://www.w3.org/1999/xlink" x="0px" y="0px"
	 width="155.176px" height="168.066px" viewBox="0 0 155.176 168.066" enable-background="new 0 0 155.176 168.066"
	 xml:space="preserve">
<g>
	<path d="M30.566,168.066l-4.98-24.414c32.486-1.431,57.339-6.836,74.561-16.211c17.22-9.375,25.83-22.525,25.83-39.453
		c0-7.422-2.734-13.15-8.203-17.188c-5.469-4.036-12.761-6.055-21.875-6.055c-6.25,0-13.037,0.327-20.361,0.977
		c-7.324,0.651-13.786,1.401-19.385,2.246c-5.6,0.847-23.535,4.004-53.809,9.473L0,52.246l40.723-6.25
		c11.849-1.822,22.378-3.108,31.592-3.857c9.212-0.748,17.334-1.123,24.365-1.123c18.033,0,32.291,4.053,42.773,12.158
		c10.481,8.105,15.723,19.711,15.723,34.814c0,24.87-10.889,44.077-32.666,57.617S70.083,166.634,30.566,168.066z M136.133,8.984
		l-6.152,24.805c-11.914-2.864-28.76-5.176-50.537-6.934s-40.251-2.637-55.42-2.637c-3.842,0-7.456,0.065-10.84,0.195L13.379,0
		c20.572,0,39.827,0.62,57.764,1.855C89.078,3.093,110.742,5.469,136.133,8.984z"/>
</g>
</svg>
