<svg version="1.1" xmlns="http://www.w3.org/2000/svg" xmlns:xlink="http://www.w3.org/1999/xlink" x="0px" y="0px"
	 width="68.84px" height="201.683px" viewBox="0 0 68.84 201.683" enable-background="new 0 0 68.84 201.683" xml:space="preserve">
<g>
	<path class="txtPath" fill-rule="evenodd" clip-rule="evenodd" d="M2.769,54.627c10.07,8.896,18.893,16.679,27.699,24.48
		c2.253,1.997,8.613,2.116,10.851-0.197c3.952-4.087,4.661-5.884,2.007-10.317c-3.215-5.371-7.093-9.971-13.296-12.145
		c-1.68-0.588-3.113-1.883-4.283-3.994c1.027-0.16,2.09-0.578,3.075-0.438c9.094,1.286,18,3.244,25.499,8.98
		c5.456,4.174,8.374,9.661,8.449,16.724c0.074,6.881,0.601,13.756,0.917,20.374c-9.734,3.077-13.956-3.387-18.686-8.23
		c-4.96-5.08-5.3-5.493-13.303-4.422c2.179,39.144-3.96,77.674-9.018,116.241c-3.135-2.457-6.96-4.106-8.47-6.975
		c-1.949-3.701-3.705-8.834-2.68-12.563c7.917-28.783,7.751-58.066,4.795-87.225C15.185,83.684,9.256,72.93,5.488,61.962
		C4.772,59.876,3.958,57.825,2.769,54.627z"/>
	<path class="txtPath" fill-rule="evenodd" clip-rule="evenodd" d="M28.225,47.343c3.818-7.969,8.961-14.423,8.297-23.689
		c-2.491,0.619-4.643,1.107-6.768,1.691c-8.714,2.398-17.199,3.035-24.17-4.131C3.578,19.151,2.292,16.388,0,12.927
		c17.119,0.326,30.634-6.604,44.601-11.65c7.144-2.58,13.76-0.651,20.456,0.576c4.42,0.811,5.05,6.83,1.456,10.945
		c-7.307,8.366-14.6,16.748-22.116,24.923c-1.389,1.511-3.861,1.983-5.736,3.101C35.465,42.724,32.347,44.756,28.225,47.343z"/>
</g>
</svg>
