<svg version="1.1" xmlns="http://www.w3.org/2000/svg" xmlns:xlink="http://www.w3.org/1999/xlink" x="0px" y="0px"
	 width="51.632px" height="41px" viewBox="0 0 51.632 41" enable-background="new 0 0 51.632 41" xml:space="preserve">
<path class="txtPath" fill-rule="evenodd" clip-rule="evenodd" d="M0,3.637c10.227,2.727,14.427,9.503,17.489,17.506
	c0.756,1.977,2.725,5.411,3.197,5.259c2.655-0.854,5.645-2.09,7.346-4.161c2.67-3.249,4.404-7.266,7.134-11.997
	c-7.265-0.553-14.246,1.769-20.125-2.504c5.532-1.296,10.8-2.511,16.056-3.78c0.941-0.228,2.082-0.436,2.699-1.073
	c4.793-4.945,10.194-2.747,15.831,0.696c2.993,1.828,2.185,4.622,0.493,6.962c-2.912,4.028-6.02,7.917-9.006,11.813
	c1.494,0.746,3.557,1.099,4.197,2.246c1.096,1.962,1.303,4.422,1.882,6.672c-1.879,0.478-3.792,1.465-5.63,1.339
	c-5.828-0.399-11.627-1.213-18.316-1.966c0.497,2.333,0.826,3.082,0.778,3.805c-0.122,1.837-0.412,3.662-0.634,5.492
	c-1.808-0.252-3.795-0.108-5.392-0.828c-6.215-2.801-9.664-6.681-8.972-14.63C9.668,17.127,6.935,9.798,0,3.637z"/>
</svg>
