<svg version="1.1" xmlns="http://www.w3.org/2000/svg" xmlns:xlink="http://www.w3.org/1999/xlink" x="0px" y="0px"
	 width="34.234px" height="49.928px" viewBox="0 0 34.234 49.928" enable-background="new 0 0 34.234 49.928" xml:space="preserve">
<path class="txtPath" fill-rule="evenodd" clip-rule="evenodd" d="M2.435,7.783c4.544-1.762,9.319-3.74,14.187-5.461
	c3.973-1.404,9.119-4.477,11.8,0.078c2.583,4.388-3.136,6.846-5.758,9.715c-1.623,1.776-3.871,2.982-5.606,5.51
	c1.646-0.076,3.295-0.256,4.938-0.207c2.949,0.086,6.12-0.291,8.758,0.699c1.591,0.598,2.35,3.41,3.482,5.227
	c-1.581,0.586-3.139,1.258-4.756,1.711c-0.567,0.158-1.298-0.175-1.932-0.359c-7.917-2.317-7.877-2.324-6.994,6.047
	c0.453,4.301,1.149,8.639,0.936,12.919c-0.106,2.136-2.013,4.181-3.105,6.267c-1.713-1.28-3.9-2.238-5.043-3.908
	c-2.467-3.607-4.398-7.582-5.939-11.918c2.111,1.34,4.223,2.68,7.055,4.477c0-4.811,0-8.68,0-13.217
	C9.826,26.676,4.947,31.181,0,24.79c10.564-2.009,14.692-9.973,19.32-17.447c-0.313-0.489-0.625-0.979-0.938-1.468
	c-2.263,1.027-4.645,1.854-6.762,3.123C7.156,11.673,5.668,11.474,2.435,7.783z"/>
</svg>
