<svg version="1.1" xmlns="http://www.w3.org/2000/svg" xmlns:xlink="http://www.w3.org/1999/xlink" x="0px" y="0px"
	 width="36.53px" height="50.006px" viewBox="0 0 36.53 50.006" enable-background="new 0 0 36.53 50.006" xml:space="preserve">
<path class="txtPath" fill-rule="evenodd" clip-rule="evenodd" d="M1.414,1.848C1.85,2.331,2.357,2.766,2.707,3.304
	C5.34,7.361,7.818,8.987,12.562,5.2c3.33-2.658,8.015-3.841,12.272-5.051c4.14-1.175,11.141,4.807,11.637,9.56
	c0.17,1.631-0.064,3.313-0.19,4.965c-0.651,8.571-1.219,17.15-2.05,25.703c-0.295,3.037-1.252,6.01-1.908,9.012
	c-0.648,0.206-1.297,0.411-1.945,0.617c-2.078-2.862-4.157-5.723-6.836-9.411c-1.237,0-3.758-0.35-6.115,0.117
	c-1.732,0.342-3.302,1.68-4.85,2.716c-1.276,0.855-2.414,1.918-3.615,2.889c-1.004-1.417-2.719-2.754-2.885-4.264
	c-0.639-5.776-0.481-11.644-1.197-17.406c-0.578-4.668-1.992-9.232-3.02-13.846C1.223,7.94,0.618,5.071,0,2.206
	C0.471,2.087,0.943,1.967,1.414,1.848z M24.808,9.582c-4.35,1.188-8.243,2.251-12.151,3.318c-0.177,9.133,8.859,4.11,12.151,8.023
	C24.808,17.477,24.808,14.03,24.808,9.582z M14.318,28.077c0,2.273,0,4.325,0,6.75c3.64-0.608,6.832-1.142,10.073-1.684
	c0-3.089,0-5.645,0-7.897C20.922,26.221,17.707,27.125,14.318,28.077z"/>
</svg>
