<svg version="1.1" xmlns="http://www.w3.org/2000/svg" xmlns:xlink="http://www.w3.org/1999/xlink" x="0px" y="0px"
	 width="59.97px" height="33.52px" viewBox="0 0 59.97 33.52" enable-background="new 0 0 59.97 33.52" xml:space="preserve">
<path class="txtPath" fill-rule="evenodd" clip-rule="evenodd" d="M47.583,12.788c-9.742,0.247-19.131,2.151-28.002,6.498
	c-1.043,0.512-2.059,1.091-3.133,1.527c-4.632,1.883-6.104,0.751-6.004-3.263c5.814-0.865,11.407-1.697,17-2.529
	c0.006-0.436,0.012-0.871,0.018-1.307c-3.088-0.47-6.177-0.939-10.333-1.571c3.602-2.042,6.106-3.462,8.611-4.883
	c-1.456-2.273-2.912-4.545-4.305-6.72c7.216-1.993,12.594,1.474,16.627,11.329C42.193,11,46.36,9.743,50.603,9.38
	c2.394-0.204,5.334,0.456,7.281,1.805c3.332,2.309,2.543,5.767-1.443,6.774c-6.006,1.518-12.123,2.595-18.461,2.787
	c3.41-2.239,6.82-4.478,10.231-6.717C48.001,13.616,47.792,13.202,47.583,12.788z"/>
<path class="txtPath" fill-rule="evenodd" clip-rule="evenodd" d="M3.482,14.318c1.87,1.89,5.129,3.648,5.324,5.698
	c0.428,4.498-0.627,9.156-1.384,13.696c-0.038,0.224-3.349,0.53-4.526-0.192c-2.601-1.599-4.114-4.013-1.636-7.018
	c2.858-3.466,4.28-7.061,0.903-11.229C2.603,14.955,3.042,14.637,3.482,14.318z"/>
</svg>
